<svg width="95" height="95" viewBox="0 0 95 95" fill="none" xmlns="http://www.w3.org/2000/svg">
<circle cx="47.5" cy="47.5" r="47.5" fill="#DF8989"/>
<path d="M35.5 30.4211C35.5 27.1268 36.817 23.9674 39.1612 21.638C41.5054 19.3086 44.6848 18 48 18C51.3152 18 54.4946 19.3086 56.8388 21.638C59.183 23.9674 60.5 27.1268 60.5 30.4211C60.5 33.7153 59.183 36.8747 56.8388 39.2041C54.4946 41.5335 51.3152 42.8421 48 42.8421C44.6848 42.8421 41.5054 41.5335 39.1612 39.2041C36.817 36.8747 35.5 33.7153 35.5 30.4211ZM41.75 52.1579C36.7772 52.1579 32.0081 54.1209 28.4917 57.615C24.9754 61.1091 23 65.8481 23 70.7895C23 72.4366 23.6585 74.0163 24.8306 75.181C26.0027 76.3457 27.5924 77 29.25 77H66.75C68.4076 77 69.9973 76.3457 71.1694 75.181C72.3415 74.0163 73 72.4366 73 70.7895C73 65.8481 71.0246 61.1091 67.5083 57.615C63.9919 54.1209 59.2228 52.1579 54.25 52.1579H41.75Z" fill="white"/>
</svg>
