<svg width="33" height="31" viewBox="0 0 33 31" fill="none" xmlns="http://www.w3.org/2000/svg">
<path d="M11 21.6667C11.7293 21.6667 12.4288 21.3945 12.9445 20.91C13.4603 20.4256 13.75 19.7685 13.75 19.0833C13.75 18.3982 13.4603 17.7411 12.9445 17.2566C12.4288 16.7722 11.7293 16.5 11 16.5C10.2707 16.5 9.57118 16.7722 9.05546 17.2566C8.53973 17.7411 8.25 18.3982 8.25 19.0833C8.25 19.7685 8.53973 20.4256 9.05546 20.91C9.57118 21.3945 10.2707 21.6667 11 21.6667ZM19.25 10.0417C19.9793 10.0417 20.6788 10.3138 21.1945 10.7983C21.7103 11.2828 22 11.9399 22 12.625V25.5417C22 26.2268 21.7103 26.8839 21.1945 27.3684C20.6788 27.8528 19.9793 28.125 19.25 28.125H2.75C2.02065 28.125 1.32118 27.8528 0.805456 27.3684C0.289731 26.8839 0 26.2268 0 25.5417V12.625C0 11.9399 0.289731 11.2828 0.805456 10.7983C1.32118 10.3138 2.02065 10.0417 2.75 10.0417H4.125V7.45833C4.125 5.74548 4.84933 4.10277 6.13864 2.8916C7.42795 1.68043 9.17664 1 11 1C11.9028 1 12.7968 1.16705 13.6309 1.49161C14.4651 1.81617 15.223 2.29189 15.8614 2.8916C16.4998 3.49131 17.0062 4.20327 17.3517 4.98684C17.6972 5.7704 17.875 6.61021 17.875 7.45833V10.0417H19.25ZM11 3.58333C9.90598 3.58333 8.85677 3.99159 8.08318 4.71829C7.3096 5.445 6.875 6.43062 6.875 7.45833V10.0417H15.125V7.45833C15.125 6.43062 14.6904 5.445 13.9168 4.71829C13.1432 3.99159 12.094 3.58333 11 3.58333Z" fill="#D9D9D9"/>
</svg>
