<svg width="21" height="28" viewBox="0 0 21 28" fill="none" xmlns="http://www.w3.org/2000/svg">
<g clip-path="url(#clip0_11_126)">
<path d="M10.3333 20.6667C11.0185 20.6667 11.6756 20.3945 12.16 19.91C12.6445 19.4256 12.9167 18.7685 12.9167 18.0833C12.9167 17.3982 12.6445 16.7411 12.16 16.2566C11.6756 15.7722 11.0185 15.5 10.3333 15.5C9.64819 15.5 8.99111 15.7722 8.50664 16.2566C8.02217 16.7411 7.75 17.3982 7.75 18.0833C7.75 18.7685 8.02217 19.4256 8.50664 19.91C8.99111 20.3945 9.64819 20.6667 10.3333 20.6667ZM18.0833 9.04167C18.7685 9.04167 19.4256 9.31384 19.91 9.79831C20.3945 10.2828 20.6667 10.9399 20.6667 11.625V24.5417C20.6667 25.2268 20.3945 25.8839 19.91 26.3684C19.4256 26.8528 18.7685 27.125 18.0833 27.125H2.58333C1.89819 27.125 1.24111 26.8528 0.756641 26.3684C0.272172 25.8839 0 25.2268 0 24.5417V11.625C0 10.9399 0.272172 10.2828 0.756641 9.79831C1.24111 9.31384 1.89819 9.04167 2.58333 9.04167H3.875V6.45833C3.875 4.74548 4.55543 3.10277 5.7666 1.8916C6.97778 0.68043 8.62048 0 10.3333 0C11.1815 0 12.0213 0.16705 12.8048 0.491611C13.5884 0.816173 14.3004 1.29189 14.9001 1.8916C15.4998 2.49131 15.9755 3.20327 16.3001 3.98684C16.6246 4.7704 16.7917 5.61021 16.7917 6.45833V9.04167H18.0833ZM10.3333 2.58333C9.30562 2.58333 8.32 2.99159 7.59329 3.71829C6.86659 4.445 6.45833 5.43062 6.45833 6.45833V9.04167H14.2083V6.45833C14.2083 5.43062 13.8001 4.445 13.0734 3.71829C12.3467 2.99159 11.361 2.58333 10.3333 2.58333Z" fill="#D9D9D9"/>
</g>
<defs>
<clipPath id="clip0_11_126">
<rect width="21" height="28" fill="white"/>
</clipPath>
</defs>
</svg>
