<svg width="28" height="28" viewBox="0 0 28 28" fill="none" xmlns="http://www.w3.org/2000/svg">
<g clip-path="url(#clip0_11_97)">
<path d="M13.9999 0.222229C15.827 0.222229 17.5792 0.94802 18.8711 2.23994C20.163 3.53185 20.8888 5.28407 20.8888 7.11112C20.8888 8.93816 20.163 10.6904 18.8711 11.9823C17.5792 13.2742 15.827 14 13.9999 14C12.1729 14 10.4207 13.2742 9.12877 11.9823C7.83685 10.6904 7.11106 8.93816 7.11106 7.11112C7.11106 5.28407 7.83685 3.53185 9.12877 2.23994C10.4207 0.94802 12.1729 0.222229 13.9999 0.222229ZM13.9999 17.4445C21.6122 17.4445 27.7777 20.5272 27.7777 24.3333V27.7778H0.222168V24.3333C0.222168 20.5272 6.38772 17.4445 13.9999 17.4445Z" fill="#D9D9D9"/>
</g>
<defs>
<clipPath id="clip0_11_97">
<rect width="28" height="28" fill="white"/>
</clipPath>
</defs>
</svg>
