<svg width="31" height="31" viewBox="0 0 31 31" fill="none" xmlns="http://www.w3.org/2000/svg">
<path d="M15.5001 5.16669C16.8704 5.16669 18.1845 5.71103 19.1535 6.67997C20.1224 7.64891 20.6667 8.96307 20.6667 10.3334C20.6667 11.7036 20.1224 13.0178 19.1535 13.9867C18.1845 14.9557 16.8704 15.5 15.5001 15.5C14.1298 15.5 12.8156 14.9557 11.8467 13.9867C10.8778 13.0178 10.3334 11.7036 10.3334 10.3334C10.3334 8.96307 10.8778 7.64891 11.8467 6.67997C12.8156 5.71103 14.1298 5.16669 15.5001 5.16669ZM15.5001 18.0834C21.2092 18.0834 25.8334 20.3954 25.8334 23.25V25.8334H5.16675V23.25C5.16675 20.3954 9.79091 18.0834 15.5001 18.0834Z" fill="#D9D9D9"/>
</svg>
