<svg width="28" height="21" viewBox="0 0 28 21" fill="none" xmlns="http://www.w3.org/2000/svg">
<g clip-path="url(#clip0_11_130)">
<path fill-rule="evenodd" clip-rule="evenodd" d="M2.17488 1.68052C0.60498 3.19306 0.60498 5.62915 0.60498 10.5C0.60498 15.3709 0.60498 17.807 2.17488 19.3195C3.74344 20.8334 6.26975 20.8334 11.321 20.8334H16.6791C21.7303 20.8334 24.2566 20.8334 25.8252 19.3195C27.3951 17.807 27.3951 15.3709 27.3951 10.5C27.3951 5.62915 27.3951 3.19306 25.8252 1.68052C24.2566 0.166687 21.7303 0.166687 16.6791 0.166687H11.321C6.26975 0.166687 3.74344 0.166687 2.17488 1.68052ZM22.8086 4.71335C22.9791 4.9107 23.0613 5.16525 23.0372 5.42102C23.0131 5.6768 22.8846 5.91288 22.68 6.07735L19.7385 8.4411C18.5503 9.39694 17.5886 10.1694 16.738 10.6964C15.8539 11.2453 14.9926 11.5915 14 11.5915C13.0075 11.5915 12.1462 11.244 11.2608 10.6964C10.4115 10.1694 9.44974 9.39564 8.2616 8.44239L5.32004 6.07864C5.11524 5.91421 4.98656 5.67806 4.96232 5.42214C4.93807 5.16622 5.02026 4.91149 5.19078 4.714C5.3613 4.51651 5.6062 4.39242 5.8716 4.36905C6.137 4.34567 6.40116 4.42492 6.60597 4.58935L9.4993 6.91306C10.7491 7.91669 11.6157 8.6116 12.3498 9.06627C13.0584 9.50544 13.5393 9.65398 14.0014 9.65398C14.4635 9.65398 14.9444 9.50673 15.653 9.06627C16.3857 8.6116 17.2537 7.91669 18.5035 6.91306L21.3955 4.58806C21.6003 4.42385 21.8644 4.3448 22.1296 4.36829C22.3949 4.39179 22.6383 4.51591 22.8086 4.71335Z" fill="#D9D9D9"/>
</g>
<defs>
<clipPath id="clip0_11_130">
<rect width="28" height="21" fill="white"/>
</clipPath>
</defs>
</svg>
